<?xml version="1.0" encoding="UTF-8"?>
<svg version="1.1" xmlns="http://www.w3.org/2000/svg" width="500" height="500">
<path d="M0 0 C1.66522391 1.09444116 3.33046331 2.18885966 4.99664307 3.28184509 C6.7189088 4.41405827 8.43702613 5.55237009 10.15478516 6.69140625 C15.45475536 10.19646527 20.82620289 13.58987314 26.1875 17 C41.31234022 26.66865815 56.37418796 36.43329425 71.27587891 46.44287109 C76.31072803 49.80739113 81.44227366 53.0054841 86.59033203 56.19311523 C91.07817978 58.98184447 95.49336495 61.8600678 99.875 64.8125 C105.53879407 68.62861712 111.27786228 72.3073565 117.0625 75.9375 C129.26038664 83.61975169 129.26038664 83.61975169 135.125 87.4375 C135.75019531 87.83453125 136.37539063 88.2315625 137.01953125 88.640625 C140.16871183 90.71170772 142.30146603 92.31099708 143.5625 95.9375 C137.53648797 102.64143838 131.31381227 107.16021076 122.1875 108.2109375 C109.82275653 108.68933531 100.5087757 102.6020096 90.5625 95.9375 C88.62848906 94.68008062 86.68937862 93.4307633 84.75 92.18164062 C76.74562003 87.02440684 68.77012448 81.82233556 60.78857422 76.62988281 C56.11807006 73.59310894 51.44020372 70.56875106 46.75 67.5625 C39.62836171 62.99327027 32.54340649 58.36835208 25.45849609 53.74243164 C20.66194748 50.61075211 15.86387198 47.48155399 11.05859375 44.36328125 C10.19065186 43.7997998 9.32270996 43.23631836 8.4284668 42.65576172 C6.74749555 41.56575818 5.06539444 40.4774948 3.38208008 39.39111328 C-0.17777413 37.08795539 -3.71295506 34.76914637 -7.171875 32.31640625 C-8.75742187 31.20072266 -8.75742187 31.20072266 -10.375 30.0625 C-11.68791016 29.10730469 -11.68791016 29.10730469 -13.02734375 28.1328125 C-15.34564133 26.75192203 -15.34564133 26.75192203 -17.82421875 26.984375 C-21.28143816 28.24530405 -24.24345893 30.0695197 -27.3125 32.0625 C-27.99449463 32.49699463 -28.67648926 32.93148926 -29.37915039 33.37915039 C-31.73878754 34.88822369 -34.08890416 36.41130192 -36.4375 37.9375 C-37.33484863 38.51967285 -38.23219727 39.1018457 -39.15673828 39.70166016 C-44.04536838 42.87662881 -48.92725879 46.06175974 -53.8046875 49.25390625 C-64.21634139 56.06775139 -74.67458775 62.80948169 -85.14428711 69.53369141 C-89.62203286 72.41056532 -94.09375872 75.29666031 -98.5625 78.1875 C-99.2647168 78.64165283 -99.96693359 79.09580566 -100.69042969 79.5637207 C-104.6346911 82.11669654 -108.57377044 84.6773957 -112.5078125 87.24609375 C-117.47615694 90.4893316 -122.45197995 93.72072404 -127.4375 96.9375 C-128.10394531 97.36788574 -128.77039063 97.79827148 -129.45703125 98.24169922 C-139.45456362 104.6637983 -147.24914642 109.44243918 -159.4375 107.9375 C-166.70159195 106.0761361 -172.15723147 103.4364531 -177.3125 97.9375 C-178.4375 95.9375 -178.4375 95.9375 -178.1953125 93.94946289 C-176.89224232 90.48986193 -173.50002561 89.15717801 -170.4375 87.375 C-168.96269428 86.48577891 -167.48876286 85.59510645 -166.015625 84.703125 C-165.25443359 84.24615234 -164.49324219 83.78917969 -163.70898438 83.31835938 C-160.15550096 81.15815923 -156.67141062 78.89512654 -153.1875 76.625 C-152.48778076 76.17092773 -151.78806152 75.71685547 -151.06713867 75.24902344 C-147.27206238 72.78545525 -143.48171136 70.31464998 -139.69140625 67.84375 C-131.0324208 62.20198902 -122.35260185 56.59764514 -113.625 51.0625 C-101.1554365 43.15073142 -88.79857749 35.06925017 -76.4453125 26.97753906 C-56.09530036 13.65092397 -56.09530036 13.65092397 -46.17700195 7.52246094 C-42.69380459 5.36595799 -39.24420793 3.16769366 -35.8203125 0.91796875 C-34.66088135 0.15758301 -34.66088135 0.15758301 -33.47802734 -0.61816406 C-31.98814112 -1.59829386 -30.50130493 -2.58308116 -29.01806641 -3.57324219 C-28.01138916 -4.23501465 -28.01138916 -4.23501465 -26.984375 -4.91015625 C-26.10023926 -5.4980896 -26.10023926 -5.4980896 -25.19824219 -6.09790039 C-15.79402737 -11.24987664 -7.74950991 -5.21996206 0 0 Z " fill="#FB3231" transform="translate(267.4375,115.0625)"/>
<path d="M0 0 C37.375 0 37.375 0 42.8125 4.5 C46.24253523 8.83267608 45.26418199 15.09093375 45.3125 20.3125 C45.34150391 21.34568359 45.37050781 22.37886719 45.40039062 23.44335938 C45.45196213 29.62797326 45.12115408 33.27733625 41 38 C41.474375 38.4125 41.94875 38.825 42.4375 39.25 C45.7928568 43.00799962 45.13288084 47.82391733 45.09765625 52.609375 C45.0962413 53.33618469 45.09482635 54.06299438 45.09336853 54.81182861 C45.08778792 57.12459494 45.07523904 59.43726312 45.0625 61.75 C45.05748249 63.32161318 45.05292002 64.89322789 45.04882812 66.46484375 C45.03867733 70.30996372 45.01909832 74.15487248 45 78 C39.06 78 33.12 78 27 78 C26.67 68.1 26.34 58.2 26 48 C23.36 47.67 20.72 47.34 18 47 C18 57.23 18 67.46 18 78 C12.06 78 6.12 78 0 78 C0 52.26 0 26.52 0 0 Z M18 12 C18 19.26 18 26.52 18 34 C20.97 34 23.94 34 27 34 C29.2397148 31.7602852 28.18531833 26.57102512 28.1875 23.5625 C28.19974609 22.67755859 28.21199219 21.79261719 28.22460938 20.88085938 C28.22654297 20.03458984 28.22847656 19.18832031 28.23046875 18.31640625 C28.23663208 17.14766968 28.23663208 17.14766968 28.24291992 15.95532227 C28.1740902 13.76440028 28.1740902 13.76440028 26 12 C23.36 12 20.72 12 18 12 Z " fill="#262626" transform="translate(208,224)"/>
<path d="M0 0 C37 0 37 0 43 4 C47.48365866 10.02974785 47.20729398 16.53268205 47.25 23.75 C47.270625 24.6059375 47.29125 25.461875 47.3125 26.34375 C47.3485163 32.28643898 46.60085806 37.59602658 44 43 C40.98088156 46.01911844 38.37983214 47.86443441 34.00708008 48.11352539 C32.89949341 48.10567017 32.89949341 48.10567017 31.76953125 48.09765625 C31.04612549 48.09515869 30.32271973 48.09266113 29.57739258 48.09008789 C28.20877075 48.07643188 28.20877075 48.07643188 26.8125 48.0625 C23.904375 48.041875 20.99625 48.02125 18 48 C18 57.9 18 67.8 18 78 C12.06 78 6.12 78 0 78 C0 52.26 0 26.52 0 0 Z M18 12 C18 19.92 18 27.84 18 36 C20.97 36 23.94 36 27 36 C29.44986932 33.55013068 29.25631311 32.862922 29.265625 29.5 C29.26820313 28.613125 29.27078125 27.72625 29.2734375 26.8125 C29.26570313 25.884375 29.25796875 24.95625 29.25 24 C29.26160156 22.6078125 29.26160156 22.6078125 29.2734375 21.1875 C29.27085937 20.300625 29.26828125 19.41375 29.265625 18.5 C29.26336914 17.6853125 29.26111328 16.870625 29.25878906 16.03125 C29.18174293 13.77369549 29.18174293 13.77369549 27 12 C24.03 12 21.06 12 18 12 Z " fill="#272727" transform="translate(297,224)"/>
<path d="M0 0 C14.19 0 28.38 0 43 0 C43 4.95 43 9.9 43 15 C38.71 15 34.42 15 30 15 C30 35.79 30 56.58 30 78 C24.06 78 18.12 78 12 78 C12 57.21 12 36.42 12 15 C8.04 15 4.08 15 0 15 C0 10.05 0 5.1 0 0 Z " fill="#272727" transform="translate(156,224)"/>
<path d="M0 0 C5.94 0 11.88 0 18 0 C18 25.74 18 51.48 18 78 C12.06 78 6.12 78 0 78 C0 52.26 0 26.52 0 0 Z " fill="#262626" transform="translate(266,224)"/>
<path d="M0 0 C5 0 5 0 6.921875 1.9140625 C7.52515625 2.80867188 8.1284375 3.70328125 8.75 4.625 C9.42546875 5.61371094 10.1009375 6.60242188 10.796875 7.62109375 C11.533855 8.74569301 12.26808166 9.87209993 13 11 C13.40927734 11.62535645 13.81855469 12.25071289 14.24023438 12.89501953 C16.86207479 16.90908531 19.43328882 20.94940892 22 25 C22.33 16.75 22.66 8.5 23 0 C24.98 0 26.96 0 29 0 C29 12.21 29 24.42 29 37 C27.02 37 25.04 37 23 37 C20.75830078 34.70507812 20.75830078 34.70507812 18.6953125 31.53125 C18.32646942 30.97634888 17.95762634 30.42144775 17.5776062 29.84973145 C16.40680492 28.07866691 15.26602369 26.29035941 14.125 24.5 C13.33524024 23.29432167 12.54359346 22.08987715 11.75 20.88671875 C9.80722289 17.94003799 7.90619605 14.97179784 6 12 C5.67 20.25 5.34 28.5 5 37 C3.35 37 1.7 37 0 37 C0 24.79 0 12.58 0 0 Z " fill="#121212" transform="translate(207,313)"/>
<path d="M0 0 C20.83333333 0 20.83333333 0 28 6 C31.36034092 10.86670064 32.14398612 16.17756114 32 22 C30.90108169 27.64176813 28.45149804 31.30851382 24 35 C20.96012663 36.82918442 18.76548626 37.24058316 15.234375 37.1953125 C14.43225586 37.19031738 13.63013672 37.18532227 12.80371094 37.18017578 C11.79598633 37.16196777 10.78826172 37.14375977 9.75 37.125 C6.5325 37.08375 3.315 37.0425 0 37 C0 24.79 0 12.58 0 0 Z M6 5 C6 14.24 6 23.48 6 33 C12.8696499 33 17.23584803 32.92288833 22.875 29 C25.87131843 24.7699034 26.38204373 21.13030149 26 16 C24.76021773 11.18672764 23.03627536 8.65021199 18.8125 6 C14.20599161 4.61943097 14.20599161 4.61943097 6 5 Z " fill="#121212" transform="translate(244,313)"/>
<path d="M0 0 C6.74835894 0.04805546 10.5900924 0.85289186 16.25 4.4375 C18.14926986 7.49743478 18.48157025 10.72652097 18.375 14.25 C17.25 17.625 17.25 17.625 15.375 20.25 C12.7578125 21.4140625 12.7578125 21.4140625 10.375 22.25 C10.9525 23.24902344 11.53 24.24804688 12.125 25.27734375 C12.87511259 26.58066437 13.62510648 27.88405332 14.375 29.1875 C14.7565625 29.84685547 15.138125 30.50621094 15.53125 31.18554688 C18.375 36.13671875 18.375 36.13671875 18.375 37.25 C15.1328125 37.65234375 15.1328125 37.65234375 11.375 37.25 C9.58540742 35.02384591 8.47332456 33.31952779 7.25 30.8125 C6.06838574 28.46657546 4.86093492 26.44393921 3.375 24.25 C1.725 23.92 0.075 23.59 -1.625 23.25 C-1.625 27.87 -1.625 32.49 -1.625 37.25 C-3.605 37.25 -5.585 37.25 -7.625 37.25 C-7.6496501 32.14136104 -7.66783607 27.03275641 -7.67993164 21.92407227 C-7.68497204 20.18480832 -7.6918043 18.44554864 -7.70043945 16.70629883 C-7.71251792 14.21174063 -7.71823108 11.71723827 -7.72265625 9.22265625 C-7.72781754 8.44036148 -7.73297882 7.65806671 -7.73829651 6.85206604 C-7.73849226 4.98432886 -7.68699694 3.11670796 -7.625 1.25 C-5.72450779 -0.65049221 -2.53174128 0.03197989 0 0 Z M-1.625 5.25 C-1.625 9.54 -1.625 13.83 -1.625 18.25 C5.04440246 18.86115498 5.04440246 18.86115498 11 16.5625 C12.67867638 13.73927154 13.09951236 12.47005492 12.375 9.25 C10.15311679 6.59807488 8.52349875 5.37099569 5.0390625 5.00390625 C2.81619697 5.00040015 0.5939174 5.11752732 -1.625 5.25 Z " fill="#101010" transform="translate(316.625,312.75)"/>
<path d="M0 0 C6.6 0 13.2 0 20 0 C20 1.65 20 3.3 20 5 C15.38 5 10.76 5 6 5 C6 8.63 6 12.26 6 16 C10.29 16 14.58 16 19 16 C19 17.65 19 19.3 19 21 C14.71 21 10.42 21 6 21 C6 24.96 6 28.92 6 33 C10.62 33 15.24 33 20 33 C20 34.32 20 35.64 20 37 C13.4 37 6.8 37 0 37 C0 24.79 0 12.58 0 0 Z " fill="#131313" transform="translate(282,313)"/>
<path d="M0 0 C6.93 0 13.86 0 21 0 C21 1.65 21 3.3 21 5 C16.05 5 11.1 5 6 5 C6 8.63 6 12.26 6 16 C9.96 16 13.92 16 18 16 C18 17.65 18 19.3 18 21 C14.04 21 10.08 21 6 21 C6 26.28 6 31.56 6 37 C4.02 37 2.04 37 0 37 C0 24.79 0 12.58 0 0 Z " fill="#131313" transform="translate(166,313)"/>
<path d="M0 0 C1.98 0 3.96 0 6 0 C6 12.21 6 24.42 6 37 C4.02 37 2.04 37 0 37 C0 24.79 0 12.58 0 0 Z " fill="#131313" transform="translate(193,313)"/>
<path d="M0 0 C1.63234937 0.90351441 3.25566824 1.8233569 4.875 2.75 C6.23238281 3.51570312 6.23238281 3.51570312 7.6171875 4.296875 C10.07970989 6.05697297 10.94467523 7.21006094 12 10 C4.63205352 17.75014543 4.63205352 17.75014543 0 20 C-0.66 20 -1.32 20 -2 20 C-2 19.34 -2 18.68 -2 18 C-1.38125 17.7525 -0.7625 17.505 -0.125 17.25 C2.35068687 15.79371361 2.95125002 14.62187494 4 12 C4.33 12 4.66 12 5 12 C4.67 11.34 4.34 10.68 4 10 C5.32 9.67 6.64 9.34 8 9 C8 8.01 8 7.02 8 6 C6.02 6.33 4.04 6.66 2 7 C0.5393715 4.35261084 0 3.10551666 0 0 Z " fill="#E8393A" transform="translate(399,201)"/>
<path d="M0 0 C-2.39205419 1.63080927 -4.78832782 3.25472186 -7.1875 4.875 C-7.86103516 5.33519531 -8.53457031 5.79539063 -9.22851562 6.26953125 C-12.72029983 8.62009818 -15.97897575 10.64144035 -20 12 C-20.33 11.01 -20.66 10.02 -21 9 C-19.68 9 -18.36 9 -17 9 C-16.67 7.68 -16.34 6.36 -16 5 C-14.35 5.33 -12.7 5.66 -11 6 C-11 5.34 -11 4.68 -11 4 C-10.01 4 -9.02 4 -8 4 C-8.33 2.68 -8.66 1.36 -9 0 C-2.25 -1.125 -2.25 -1.125 0 0 Z " fill="#E43A39" transform="translate(166,195)"/>
<path d="M0 0 C3.17009503 1.78749907 6.09993931 3.80481517 9 6 C8.01 6.33 7.02 6.66 6 7 C5.34 6.67 4.68 6.34 4 6 C4 6.66 4 7.32 4 8 C3.01 7.67 2.02 7.34 1 7 C1 5.33333333 1 3.66666667 1 2 C-2.63 1.67 -6.26 1.34 -10 1 C-10.33 1.99 -10.66 2.98 -11 4 C-12.32 3.34 -13.64 2.68 -15 2 C-9.8536905 -0.68036953 -5.71291722 -1.94615861 0 0 Z " fill="#E53B3C" transform="translate(256,108)"/>
<path d="M0 0 C-2.28560647 1.5306999 -4.57762667 3.04965044 -6.875 4.5625 C-7.52597656 5.00013672 -8.17695313 5.43777344 -8.84765625 5.88867188 C-10.52625497 6.98754836 -12.26023387 8.0007818 -14 9 C-14.66 8.67 -15.32 8.34 -16 8 C-15.67 7.01 -15.34 6.02 -15 5 C-13.68 5 -12.36 5 -11 5 C-11 4.01 -11 3.02 -11 2 C-9.35 2 -7.7 2 -6 2 C-6 1.34 -6 0.68 -6 0 C-3.50907189 -1.24546405 -2.58919267 -0.7767578 0 0 Z " fill="#E3393A" transform="translate(145,209)"/>
<path d="M0 0 C0.99 0.99 1.98 1.98 3 3 C2.030625 3.391875 1.06125 3.78375 0.0625 4.1875 C-4.47716896 6.12244087 -8.72419136 8.54698506 -13 11 C-12.67 10.01 -12.34 9.02 -12 8 C-9.9375 7.3125 -9.9375 7.3125 -8 7 C-8 6.34 -8 5.68 -8 5 C-7.34 5 -6.68 5 -6 5 C-6 4.34 -6 3.68 -6 3 C-4.68 3 -3.36 3 -2 3 C-2 2.34 -2 1.68 -2 1 C-1.34 0.67 -0.68 0.34 0 0 Z " fill="#E9393C" transform="translate(249,138)"/>
<path d="M0 0 C1.6498275 0.42218816 3.29483665 0.86324425 4.9375 1.3125 C6.31228516 1.67794922 6.31228516 1.67794922 7.71484375 2.05078125 C8.46894531 2.36402344 9.22304688 2.67726562 10 3 C10.33 3.99 10.66 4.98 11 6 C13.50447516 7.21869929 13.50447516 7.21869929 16 8 C16 8.66 16 9.32 16 10 C9.8034553 8.53239731 4.93130534 4.88851943 0 1 C0 0.67 0 0.34 0 0 Z " fill="#E33936" transform="translate(357,209)"/>
<path d="M0 0 C0.66 0.33 1.32 0.66 2 1 C-0.475 4.465 -0.475 4.465 -3 8 C-5.97 7.505 -5.97 7.505 -9 7 C-6.25604436 4.05278838 -3.61662784 1.80831392 0 0 Z " fill="#EF3938" transform="translate(188,144)"/>
<path d="M0 0 C0.66 0.33 1.32 0.66 2 1 C0.68 3.31 -0.64 5.62 -2 8 C-4.475 7.01 -4.475 7.01 -7 6 C-4.74259377 3.66475218 -2.7194239 1.81294927 0 0 Z " fill="#EF3A3A" transform="translate(118,189)"/>
<path d="M0 0 C5.53846154 -0.36923077 5.53846154 -0.36923077 7.875 1.5 C8.24625 1.995 8.6175 2.49 9 3 C8.67 3.66 8.34 4.32 8 5 C8.99 5 9.98 5 11 5 C11.33 5.99 11.66 6.98 12 8 C7.44328408 6.48109469 3.68276708 4.04597738 0 1 C0 0.67 0 0.34 0 0 Z " fill="#E03D3E" transform="translate(329,191)"/>
<path d="M0 0 C1.98 0 3.96 0 6 0 C3.25604436 2.94721162 0.61662784 5.19168608 -3 7 C-3.66 6.67 -4.32 6.34 -5 6 C-4.67 5.01 -4.34 4.02 -4 3 C-3.01 2.67 -2.02 2.34 -1 2 C-0.67 1.34 -0.34 0.68 0 0 Z " fill="#E83639" transform="translate(174,185)"/>
<path d="M0 0 C2.31 0 4.62 0 7 0 C7.33 1.65 7.66 3.3 8 5 C8.66 5 9.32 5 10 5 C9.67 5.66 9.34 6.32 9 7 C7.4972763 6.02501855 5.99788037 5.04490611 4.5 4.0625 C3.6646875 3.51722656 2.829375 2.97195312 1.96875 2.41015625 C1.3190625 1.94480469 0.669375 1.47945312 0 1 C0 0.67 0 0.34 0 0 Z " fill="#E63A37" transform="translate(309,178)"/>
<path d="M0 0 C0 0.66 0 1.32 0 2 C-0.99 2 -1.98 2 -3 2 C-3.66 3.98 -4.32 5.96 -5 8 C-5.99 7.67 -6.98 7.34 -8 7 C-7.8125 5.1875 -7.8125 5.1875 -7 3 C-2.82142857 0 -2.82142857 0 0 0 Z " fill="#DC3E3F" transform="translate(97,204)"/>
<path d="M0 0 C1.32 0.33 2.64 0.66 4 1 C2.9024777 3.99324263 2.32317108 4.84610901 -0.625 6.25 C-1.40875 6.4975 -2.1925 6.745 -3 7 C-3.33 6.01 -3.66 5.02 -4 4 C-2.68 4 -1.36 4 0 4 C0 2.68 0 1.36 0 0 Z " fill="#EF3637" transform="translate(149,200)"/>
<path d="M0 0 C0.99 0.33 1.98 0.66 3 1 C2.67 2.98 2.34 4.96 2 7 C-0.475 6.01 -0.475 6.01 -3 5 C-3 4.01 -3 3.02 -3 2 C-2.01 1.34 -1.02 0.68 0 0 Z " fill="#F03638" transform="translate(290,160)"/>
<path d="M0 0 C1.31602523 0.61754259 2.62773556 1.24428742 3.9375 1.875 C4.66839844 2.22304687 5.39929688 2.57109375 6.15234375 2.9296875 C8 4 8 4 9 6 C7.35 6 5.7 6 4 6 C4 5.34 4 4.68 4 4 C3.01 4 2.02 4 1 4 C0.67 2.68 0.34 1.36 0 0 Z " fill="#E53B3D" transform="translate(386,193)"/>
<path d="M0 0 C3.68754757 0.49831724 5.60490662 1.10067643 8 4 C6.35 3.67 4.7 3.34 3 3 C3 3.66 3 4.32 3 5 C2.01 4.67 1.02 4.34 0 4 C0 2.68 0 1.36 0 0 Z " fill="#EF3639" transform="translate(257,111)"/>
<path d="M0 0 C1.65 0.33 3.3 0.66 5 1 C5 2.33333333 5 3.66666667 5 5 C3.02 5 1.04 5 -1 5 C-0.67 3.35 -0.34 1.7 0 0 Z " fill="#212121" transform="translate(169,297)"/>
<path d="M0 0 C0.66 0.33 1.32 0.66 2 1 C1.071875 1.3403125 1.071875 1.3403125 0.125 1.6875 C-2.61410209 3.37929835 -3.05024472 4.99244161 -4 8 C-4.33 7.34 -4.66 6.68 -5 6 C-5.66 5.67 -6.32 5.34 -7 5 C-4.69 3.35 -2.38 1.7 0 0 Z " fill="#E43E3C" transform="translate(228,118)"/>
<path d="M0 0 C2.97 0 5.94 0 9 0 C9 0.99 9 1.98 9 3 C5.72724974 3 3.153368 2.70074844 0 2 C0 1.34 0 0.68 0 0 Z " fill="#171717" transform="translate(310,313)"/>
<path d="M0 0 C0.66 0.33 1.32 0.66 2 1 C-0.25 3.5625 -0.25 3.5625 -3 6 C-4.32 5.67 -5.64 5.34 -7 5 C-4.69 3.35 -2.38 1.7 0 0 Z " fill="#E13F41" transform="translate(166,158)"/>
<path d="M0 0 C3 2 3 2 3.6875 4.125 C3.790625 4.74375 3.89375 5.3625 4 6 C1.525 5.01 1.525 5.01 -1 4 C-1 1 -1 1 0 0 Z " fill="#E43738" transform="translate(300,169)"/>
<path d="M0 0 C2.31 0 4.62 0 7 0 C7.33 1.65 7.66 3.3 8 5 C4.62496331 3.8141763 2.35277269 2.72426311 0 0 Z " fill="#E73938" transform="translate(264,149)"/>
</svg>
